<?xml version="1.0" encoding="iso-8859-1"?>
<!-- Generator: Adobe Illustrator 18.0.0, SVG Export Plug-In . SVG Version: 6.00 Build 0)  -->
<!DOCTYPE svg PUBLIC "-//W3C//DTD SVG 1.1//EN" "http://www.w3.org/Graphics/SVG/1.1/DTD/svg11.dtd">
<svg xmlns="http://www.w3.org/2000/svg" xmlns:xlink="http://www.w3.org/1999/xlink" version="1.1" id="Capa_1" x="0px" y="0px" viewBox="0 0 57.344 57.344" style="enable-background:new 0 0 57.344 57.344;" xml:space="preserve" width="512px" height="512px">
<g>
	<rect x="15.672" y="49" width="2" height="2" fill="#07ccbd"/>
	<rect x="18.672" y="49" width="2" height="2" fill="#07ccbd"/>
	<rect x="21.672" y="49" width="2" height="2" fill="#07ccbd"/>
	<rect x="24.672" y="49" width="2" height="2" fill="#07ccbd"/>
	<rect x="27.672" y="49" width="2" height="2" fill="#07ccbd"/>
	<rect x="30.672" y="49" width="2" height="2" fill="#07ccbd"/>
	<rect x="33.672" y="49" width="2" height="2" fill="#07ccbd"/>
	<rect x="36.672" y="49" width="2" height="2" fill="#07ccbd"/>
	<rect x="39.672" y="49" width="2" height="2" fill="#07ccbd"/>
	<path d="M46.672,49.808V0h-22v1v6h-6h-1v1v6h-6h-1v16v1v18.808l-2.181,5.453l0.495,0.467c1.127,1.063,3.192,1.616,5.22,1.616   c1.606,0,3.189-0.348,4.264-1.063c2.033,1.404,4.769,1.403,6.802,0.001c2.032,1.402,4.767,1.403,6.8,0   c2.034,1.403,4.77,1.403,6.802-0.001c1.063,0.707,2.625,1.054,4.214,1.061c2.044,0.009,4.133-0.543,5.27-1.615l0.495-0.467   L46.672,49.808z M44.04,11.184l-8.028,29.434L12.871,30.435l5.5-3.397L44.04,11.184z M38.672,9v3.148l-3,1.853V14h-2V9H38.672z    M33.672,7V2h5v5H33.672z M40.672,9h3.097l-3.097,1.913V9z M31.672,14h-5V9h5V14z M31.672,16v0.472l-5,3.088V16H31.672z    M24.672,20.795L24.341,21h-4.669v-5h5V20.795z M21.103,23l-1.431,0.884V23H21.103z M17.672,25.119l-5,3.088V23h5V25.119z    M44.672,7h-4V2h4V7z M26.672,2h5v5h-5V2z M19.672,9h5v5h-5V9z M17.672,16v5h-5v-5H17.672z M31.054,54.552   c-1.381,1.029-3.385,1.029-4.764,0c-0.6-0.449-1.437-0.449-2.037,0c-0.69,0.515-1.536,0.772-2.382,0.772s-1.692-0.258-2.382-0.773   c-0.601-0.448-1.438-0.448-2.036,0.001c-0.161,0.12-0.356,0.223-0.568,0.315c-0.026,0.011-0.049,0.024-0.075,0.034   c-0.206,0.084-0.432,0.155-0.671,0.214c-0.041,0.01-0.082,0.021-0.123,0.03c-0.24,0.054-0.492,0.097-0.752,0.128   c-0.044,0.005-0.088,0.009-0.133,0.013c-0.268,0.027-0.542,0.045-0.82,0.048c-0.029,0-0.059-0.001-0.088-0.001   c-0.278,0-0.557-0.01-0.833-0.034c-0.02-0.002-0.041-0.002-0.062-0.004c-0.278-0.025-0.549-0.065-0.813-0.115   c-0.042-0.008-0.085-0.015-0.126-0.023c-0.253-0.052-0.494-0.115-0.722-0.188c-0.041-0.013-0.081-0.027-0.122-0.041   c-0.224-0.078-0.434-0.166-0.622-0.265c-0.012-0.007-0.023-0.014-0.035-0.02l1.78-4.45v-17.66l23.597,10.383   C36.397,42.972,36.535,43,36.672,43c0.147,0,0.294-0.032,0.431-0.098c0.263-0.125,0.458-0.358,0.534-0.64l7.035-25.796v33.725   l1.78,4.451c-0.011,0.006-0.021,0.013-0.033,0.019c-0.19,0.101-0.402,0.19-0.629,0.268c-0.036,0.013-0.073,0.025-0.11,0.037   c-0.232,0.075-0.478,0.139-0.736,0.192c-0.035,0.007-0.072,0.013-0.108,0.02c-0.269,0.051-0.547,0.092-0.831,0.117   c-0.013,0.001-0.027,0.001-0.04,0.002c-0.284,0.025-0.572,0.036-0.859,0.035c-0.025,0-0.049,0.001-0.074,0.001   c-0.279-0.003-0.554-0.02-0.824-0.048c-0.044-0.005-0.089-0.009-0.133-0.014c-0.259-0.031-0.51-0.073-0.749-0.127   c-0.043-0.01-0.085-0.021-0.128-0.031c-0.237-0.059-0.462-0.129-0.666-0.212c-0.028-0.012-0.053-0.025-0.08-0.037   c-0.21-0.092-0.404-0.194-0.565-0.314c-0.3-0.224-0.66-0.336-1.019-0.336c-0.18,0-0.359,0.028-0.531,0.084   c-0.172,0.056-0.337,0.14-0.486,0.253c-0.69,0.515-1.536,0.772-2.382,0.772c-0.846,0-1.692-0.258-2.382-0.773   C32.489,54.103,31.652,54.103,31.054,54.552z" fill="#07ccbd"/>
</g>
<g>
</g>
<g>
</g>
<g>
</g>
<g>
</g>
<g>
</g>
<g>
</g>
<g>
</g>
<g>
</g>
<g>
</g>
<g>
</g>
<g>
</g>
<g>
</g>
<g>
</g>
<g>
</g>
<g>
</g>
</svg>
