<?xml version="1.0" encoding="iso-8859-1"?>
<!-- Generator: Adobe Illustrator 19.0.0, SVG Export Plug-In . SVG Version: 6.00 Build 0)  -->
<svg xmlns="http://www.w3.org/2000/svg" xmlns:xlink="http://www.w3.org/1999/xlink" version="1.1" id="Layer_1" x="0px" y="0px" viewBox="0 0 511.998 511.998" style="enable-background:new 0 0 511.998 511.998;" xml:space="preserve" width="512px" height="512px">
<g>
	<g>
		<path d="M126.631,235.236l-14.188,13.297c-8.743,8.195-9.188,21.925-0.994,30.669c6.918,7.382,18.03,9.026,26.815,3.856    L126.631,235.236z" fill="#07ccbd"/>
	</g>
</g>
<g>
	<g>
		<path d="M357.112,484.847c-4.457-3.735-1.665-0.697-49.035-61.074l0.165,63.845c0.035,13.475,10.97,24.375,24.437,24.375    c0.021,0,0.043,0,0.064,0c13.497-0.035,24.41-11.005,24.375-24.502L357.112,484.847z" fill="#07ccbd"/>
	</g>
</g>
<g>
	<g>
		<path d="M271.953,377.727c1.865,8.079,1.233,16.679-2.105,24.583l-20.95,49.628l-0.002,35.613    c-0.001,13.498,10.94,24.44,24.436,24.441c0.001,0,0.001,0,0.002,0c13.496,0,24.437-10.941,24.439-24.436l0.006-76.911    L271.953,377.727z" fill="#07ccbd"/>
	</g>
</g>
<g>
	<g>
		<path d="M270.904,34.872c-3.862-22.794-25.472-38.141-48.266-34.277c-15.047,2.549-26.844,12.836-32.017,26.088    c10.597,5.963,19.276,15.232,24.425,26.776c4.14,9.279,5.717,19.254,4.743,29.098c5.357,1.298,11.058,1.559,16.837,0.58    c6.802-1.153,12.933-3.895,18.096-7.768L268.9,56.356C271.359,49.712,272.173,42.358,270.904,34.872z" fill="#07ccbd"/>
	</g>
</g>
<g>
	<g>
		<path d="M254.428,375.094l-53.079,23.678l-33.465,79.277c-5.249,12.434,0.576,26.769,13.009,32.019    c12.421,5.245,26.767-0.566,32.019-13.009l42.558-100.817C258.387,389.334,257.933,381.556,254.428,375.094z" fill="#07ccbd"/>
	</g>
</g>
<g>
	<g>
		<path d="M401.379,439.559l-75.562-96.312l-44.47,19.837l82.871,105.628c8.055,10.265,22.899,12.051,33.158,4.003    C407.636,464.666,409.429,449.82,401.379,439.559z" fill="#07ccbd"/>
	</g>
</g>
<g>
	<g>
		<path d="M356.802,272.829l-26.392-155.74c-0.788-4.656-2.68-8.849-5.354-12.365c-4.707,6.312-40.408,54.191-45.236,60.667    c-4.308,5.777-6.845,10.246-14.001,12.669l0.141,19.991l-68.437,37.174c-10.53,5.719-14.429,18.891-8.709,29.421    c5.726,10.544,18.908,14.423,29.421,8.709l79.868-43.383c7.037-3.822,11.396-11.21,11.34-19.217l-0.496-70.586l20.3,70.447    c3.703,12.852-2.22,26.196-13.51,32.322c-9.795,5.312-7.111,3.856-12.3,6.674c6.406,9.351,27.886,40.71,35.387,51.661    c6.712,9.798,6.66,22.633,0.072,32.029l17.885,22.796c-0.224-86.925-0.124-80.889-0.406-83.198L356.802,272.829z" fill="#07ccbd"/>
	</g>
</g>
<g>
	<g>
		<path d="M324.864,310.836l-36.376-53.105l-60.8,33.025c-20.141,10.94-45.336,3.481-56.276-16.66    c-10.94-20.141-3.481-45.336,16.66-56.276l53.263-28.93l-6.787-9.91l-49.928-0.389l70.015-17.36    c4.15-1.029,7.814-3.463,10.369-6.891l51.889-69.59c6.102-8.183,4.414-19.764-3.77-25.866c-8.183-6.1-19.764-4.414-25.866,3.77    l-47.936,64.289l-63.596,15.77l17.773-9.569c-4.457-0.677-8.7-0.051-12.498,1.643c-13.348,5.955-22.736,10.142-37.551,16.751    c-10.387,4.633-15.743,16.527-12.843,28.449l47.732,196.213c1.639,6.737,8.634,10.459,14.378,7.895    c28.053-12.514,100.385-44.781,128.418-57.287C326.951,324.213,328.749,316.508,324.864,310.836z" fill="#07ccbd"/>
	</g>
</g>
<g>
	<g>
		<circle cx="162.345" cy="76.963" r="40.789" fill="#07ccbd"/>
	</g>
</g>
<g>
</g>
<g>
</g>
<g>
</g>
<g>
</g>
<g>
</g>
<g>
</g>
<g>
</g>
<g>
</g>
<g>
</g>
<g>
</g>
<g>
</g>
<g>
</g>
<g>
</g>
<g>
</g>
<g>
</g>
</svg>
