<?xml version="1.0" encoding="iso-8859-1"?>
<!-- Generator: Adobe Illustrator 16.0.0, SVG Export Plug-In . SVG Version: 6.00 Build 0)  -->
<!DOCTYPE svg PUBLIC "-//W3C//DTD SVG 1.1//EN" "http://www.w3.org/Graphics/SVG/1.1/DTD/svg11.dtd">
<svg xmlns="http://www.w3.org/2000/svg" xmlns:xlink="http://www.w3.org/1999/xlink" version="1.1" id="Capa_1" x="0px" y="0px" width="512px" height="512px" viewBox="0 0 934.105 934.105" style="enable-background:new 0 0 934.105 934.105;" xml:space="preserve">
<g>
	<g>
		<path d="M228.13,632.199l36.9,24l-6.2,9.5l98.1,63.9l60.1-92.299c3.601-5.602,2-13-3.5-16.602l-54.399-35.398l17.5-26.801    c4.5-6.9,2.6-16.199-4.4-20.801l-13.9-9.1l-53.6-34.799l-14.7-9.602c-2.5-1.6-5.399-2.398-8.2-2.398    c-4.899,0-9.7,2.398-12.6,6.799l-17.5,26.801l-54.8-35.701c-5.6-3.6-13-2-16.6,3.5l-60.1,92.301l101.7,66.199L228.13,632.199z     M286.23,517.6l57.1,37.201l-9.3,14.299l-10.5-6.799l-36.1-23.5L276.93,532L286.23,517.6z" fill="#07ccbd"/>
		<path d="M81.33,657.5l126.7,82.5l89.8,58.5c5.601,3.6,13,2,16.601-3.5l28.899-44.301l-98.1-63.898l-6.2,9.5l-15.6-10.201    l-21.3-13.9l6.2-9.5L106.63,596.5l-28.9,44.301C74.13,646.4,75.73,653.801,81.33,657.5z" fill="#07ccbd"/>
		<path d="M731.329,191c-8.699-4.7-27.799-18.2-27.799-46c0-36,9-145-95.5-145s-95.5,109-95.5,145c0,27.8-19.1,41.3-27.801,46    c-2.6,1.4-3.799,4.4-2.9,7.1c5.801,18.6,20.4,24.3,36.102,24.3c24.1,0,50.6-13.4,50.6-13.4c-12.5-7.3-18.9-21.8-22-36.4    c13.1,21.7,35.799,36,61.5,36c25.699,0,48.4-14.3,61.5-36c-3.1,14.7-9.5,29.1-22,36.4c0,0,26.5,13.4,50.6,13.4    c15.6,0,30.301-5.6,36.1-24.3C735.13,195.4,733.931,192.4,731.329,191z" fill="#07ccbd"/>
		<path d="M852.329,517.9L700.931,290.4c-11.301-21.1-29.602-38-51.801-47.4c-3.9-1.6-8.1-0.4-10.5,2.6    c-2.301,14.9-15.199,26.4-30.699,26.4c-15.602,0-28.5-11.5-30.701-26.4c-2.4-3-6.699-4.2-10.5-2.6c-16.1,6.9-30.199,17.6-41,31.1    c-1.799,1.8-3.5,3.8-4.9,6L437.03,409.5l-114.6,58.4c-2.3,1.199-4.4,2.6-6.3,4.1l66.899,43.6l94.2-48c5.5-2.799,10.1-7,13.5-12.2    l11.801-18.3v24l-82.8,235c-3.4,9.801,3.8,20,14.1,20h68.601v170.201c0,25.799,20.398,47.398,46.199,47.799    c26.301,0.4,47.801-20.799,47.801-47v-171h22.699v170.201c0,25.799,20.4,47.398,46.199,47.799c26.301,0.4,47.801-20.799,47.801-47    v-171h68.6c10.301,0,17.6-10.199,14.1-20l-82.799-235v-25.8l81.199,121.899c6.701,10.102,17.801,15.602,29.201,15.602    c6.699,0,13.398-1.9,19.398-5.9C859.03,556.301,863.03,533.9,852.329,517.9z M607.931,363.1l-24.102-82.6    c7.301,3.9,15.5,6,24.102,6c8.5,0,16.799-2.1,24.1-6L607.931,363.1z" fill="#07ccbd"/>
	</g>
</g>
<g>
</g>
<g>
</g>
<g>
</g>
<g>
</g>
<g>
</g>
<g>
</g>
<g>
</g>
<g>
</g>
<g>
</g>
<g>
</g>
<g>
</g>
<g>
</g>
<g>
</g>
<g>
</g>
<g>
</g>
</svg>
